<svg width="36" height="36" viewBox="0 0 36 36" fill="none" xmlns="http://www.w3.org/2000/svg">
<path fill-rule="evenodd" clip-rule="evenodd" d="M18.5 8C21.0609 8 23.2376 9.76105 23.8369 12.1724C26.2436 12.7736 28 14.9541 28 17.518C28 20.3327 25.8828 22.6868 23.1101 22.9939C22.5612 23.0547 22.0669 22.659 22.0061 22.1101C21.9453 21.5612 22.341 21.0669 22.8899 21.0061C24.6514 20.8109 26 19.3114 26 17.518C26 15.7174 24.6408 14.214 22.8706 14.0278C22.4009 13.9784 22.0298 13.6072 21.9806 13.1375C21.7947 11.3618 20.2947 10 18.5 10C16.7037 10 15.2029 11.3641 15.0189 13.1417C14.9615 13.696 14.4622 14.0964 13.9087 14.0321C13.7739 14.0164 13.6376 14.0085 13.5 14.0085C11.5675 14.0085 10 15.5793 10 17.518C10 19.3114 11.3486 20.8109 13.1101 21.0061C13.659 21.0669 14.0547 21.5612 13.9939 22.1101C13.9331 22.659 13.4388 23.0547 12.8899 22.9939C10.1172 22.6868 8 20.3327 8 17.518C8 14.575 10.3038 12.1702 13.2043 12.0163C13.8571 9.68561 15.9945 8 18.5 8Z" fill="#92929D"/>
<path d="M16.6108 16.7918L17 16.4915L17 27C17 27.5523 17.4477 28 18 28C18.5522 28 19 27.5523 19 27L19 16.4915L19.3891 16.7918C19.8264 17.1291 20.4544 17.0481 20.7917 16.6108C21.1291 16.1735 21.0481 15.5456 20.6108 15.2082L18.6277 13.6784C18.5695 13.6314 18.5069 13.5917 18.4412 13.5595C18.3213 13.5004 18.188 13.4647 18.047 13.4582C17.9551 13.4538 17.8624 13.462 17.766 13.4846C17.6909 13.5026 17.6192 13.5291 17.5657 13.5561C17.4975 13.5889 17.4325 13.6297 17.3722 13.6784L15.3891 15.2082C14.9519 15.5456 14.8708 16.1735 15.2082 16.6108C15.5455 17.0481 16.1735 17.1291 16.6108 16.7918Z" fill="#92929D"/>
</svg>
